<?xml version="1.0" standalone="no"?>
<!DOCTYPE svg PUBLIC "-//W3C//DTD SVG 20010904//EN"
 "http://www.w3.org/TR/2001/REC-SVG-20010904/DTD/svg10.dtd">
<svg version="1.0" xmlns="http://www.w3.org/2000/svg"
 width="439.000000pt" height="360.000000pt" viewBox="0 0 439.000000 360.000000"
 preserveAspectRatio="xMidYMid meet">

<g transform="translate(0.000000,360.000000) scale(0.100000,-0.100000)"
fill="#000000" stroke="none">
<path d="M1840 2444 c-218 -46 -412 -228 -479 -447 -26 -87 -36 -205 -22 -286
7 -46 7 -69 -1 -84 -29 -54 -2 -174 48 -218 26 -22 79 -49 99 -49 9 0 44 -23
78 -52 109 -91 290 -159 419 -158 148 2 331 72 440 170 78 69 151 182 184 283
23 70 28 100 28 202 1 133 -16 204 -77 320 -46 86 -174 212 -264 258 -139 72
-301 94 -453 61z m279 -79 c162 -38 307 -156 380 -307 64 -134 77 -254 41
-392 -26 -104 -62 -167 -143 -252 -112 -119 -249 -178 -412 -178 -148 0 -276
50 -383 149 -40 37 -68 55 -85 55 -84 0 -136 101 -93 180 10 18 11 31 3 50
-18 44 -14 238 7 300 66 197 225 349 412 394 78 19 194 19 273 1z"/>
</g>
</svg>
